<svg width="56" height="56" viewBox="0 0 56 56" fill="none" xmlns="http://www.w3.org/2000/svg">
<path fill-rule="evenodd" clip-rule="evenodd" d="M19.2913 35.2446C18.8893 35.6597 18.9052 36.3172 19.3267 36.713C19.7482 37.1089 20.4158 37.0933 20.8178 36.6782L28 29.2614L35.1821 36.6782C35.5841 37.0933 36.2517 37.1089 36.6732 36.713C37.0948 36.3172 37.1106 35.6597 36.7086 35.2446L29.4573 27.7564L36.2369 20.7554C36.6388 20.3403 36.623 19.6828 36.2015 19.287C35.7799 18.8911 35.1123 18.9067 34.7104 19.3218L28 26.2515L21.2896 19.3218C20.8876 18.9067 20.22 18.8911 19.7985 19.287C19.3769 19.6828 19.3611 20.3403 19.7631 20.7554L26.5426 27.7564L19.2913 35.2446Z" fill="#B3B3B3"/>
</svg>
